<svg xmlns="http://www.w3.org/2000/svg" xmlns:xlink="http://www.w3.org/1999/xlink" fill="none" version="1.1" width="24" height="24" viewBox="0 0 24 24"><g><g><path d="M8.001940000000001,4.5529179624023435C10.698260000000001,4.349697462402344,13.4065,4.363031362402344,16.1007,4.5927909624023435L17.7245,4.731262962402344C18.951,4.835858962402344,19.9464,5.7666739624023435,20.1329,6.983423962402344L20.2353,7.651753962402344C20.5829,9.919653962402343,20.5505,12.229623962402343,20.1392,14.486873962402344C19.9362,15.600573962402343,18.9661,16.409973962402344,17.834,16.409973962402344L8.85756,16.409973962402344C8.65104,16.409973962402344,8.44774,16.46117396240234,8.265830000000001,16.558973962402344L4.35504,18.660673962402342C4.122606,18.785573962402346,3.841631,18.779173962402346,3.615148,18.643773962402342C3.388666,18.508373962402345,3.25,18.263873962402343,3.25,17.999973962402343L3.25,9.482703962402343C3.25,6.904113962402343,5.23741,4.761279962402344,7.80871,4.5674819624023435L8.001940000000001,4.5529179624023435ZM15.9733,6.0873639624023435C13.359,5.864423962402344,10.73103,5.851483962402344,8.11468,6.048673962402344L7.92144,6.0632439624023435C6.13262,6.198063962402344,4.75,7.688803962402344,4.75,9.482703962402343L4.75,16.745473962402343L7.55575,15.237673962402344C7.95596,15.022573962402344,8.403220000000001,14.909973962402344,8.85756,14.909973962402344L17.834,14.909973962402344C18.241300000000003,14.909973962402344,18.590400000000002,14.618773962402344,18.6635,14.217983962402343C19.0449,12.124593962402344,19.075,9.982303962402344,18.7526,7.879013962402343L18.650199999999998,7.210693962402344C18.5686,6.678613962402344,18.1334,6.271573962402344,17.597,6.225833962402344L15.9733,6.0873639624023435ZM6.75,10.750003962402344C6.75,10.059643962402344,7.30964,9.500003962402344,8,9.500003962402344C8.69036,9.500003962402344,9.25,10.059643962402344,9.25,10.750003962402344C9.25,11.440353962402344,8.69036,12.000003962402344,8,12.000003962402344C7.30964,12.000003962402344,6.75,11.440353962402344,6.75,10.750003962402344ZM10.75,10.750003962402344C10.75,10.059643962402344,11.30964,9.500003962402344,12,9.500003962402344C12.69036,9.500003962402344,13.25,10.059643962402344,13.25,10.750003962402344C13.25,11.440353962402344,12.69036,12.000003962402344,12,12.000003962402344C11.30964,12.000003962402344,10.75,11.440353962402344,10.75,10.750003962402344ZM16,9.500003962402344C15.3096,9.500003962402344,14.75,10.059643962402344,14.75,10.750003962402344C14.75,11.440353962402344,15.3096,12.000003962402344,16,12.000003962402344C16.6904,12.000003962402344,17.25,11.440353962402344,17.25,10.750003962402344C17.25,10.059643962402344,16.6904,9.500003962402344,16,9.500003962402344Z" fill-rule="evenodd" fill="#000000" fill-opacity="1"/></g></g></svg>