<svg xmlns="http://www.w3.org/2000/svg" xmlns:xlink="http://www.w3.org/1999/xlink" fill="none" version="1.1" width="24" height="24" viewBox="0 0 24 24"><g><g><path d="M10.702381088409425,5.250013113021851C10.536151088409424,5.250013113021851,10.382711088409424,5.339203113021851,10.300421088409424,5.483633113021851C10.300421088409424,5.483633113021851,6.954451088409424,11.35686311302185,6.954451088409424,11.35686311302185C6.510911088409424,12.13540311302185,6.3247810884094235,13.03421311302185,6.4226610884094235,13.92491311302185C6.4226610884094235,13.92491311302185,6.775801088409423,17.13851311302185,6.775801088409423,17.13851311302185C6.838631088409424,17.71031311302185,7.2875010884094245,18.16321311302185,7.858701088409424,18.23121311302185C7.858701088409424,18.23121311302185,9.975751088409424,18.48301311302185,9.975751088409424,18.48301311302185C11.373311088409423,18.64931311302185,12.790351088409423,18.50511311302185,14.125831088409424,18.06091311302185C14.785371088409423,17.84161311302185,15.313621088409423,17.34101311302185,15.568121088409423,16.694213113021853C15.568121088409423,16.694213113021853,17.272221088409424,12.363643113021851,17.272221088409424,12.363643113021851C17.313921088409423,12.25776311302185,17.342721088409423,12.14726311302185,17.358021088409423,12.03452311302185C17.487221088409424,11.08241311302185,16.653721088409426,10.27925311302185,15.707121088409425,10.443683113021851C15.707121088409425,10.443683113021851,12.291291088409423,11.036953113021852,12.291291088409423,11.036953113021852C11.212291088409424,11.22435311302185,10.280381088409424,10.27217311302185,10.490971088409424,9.19745311302185C10.490971088409424,9.19745311302185,11.156371088409424,5.80159311302185,11.156371088409424,5.80159311302185C11.212371088409423,5.515823113021851,10.993581088409424,5.250013113021851,10.702381088409425,5.250013113021851C10.702381088409425,5.250013113021851,10.702381088409425,5.250013113021851,10.702381088409425,5.250013113021851ZM8.997091088409423,4.7411231130218505C9.346171088409424,4.1283741130218505,9.997161088409424,3.7500194311918507,10.702371088409425,3.7500131131035945C11.937761088409424,3.750002026621851,12.865931088409424,4.87769311302185,12.628381088409423,6.09002311302185C12.628381088409423,6.09002311302185,11.962971088409425,9.48588311302185,11.962971088409425,9.48588311302185C11.960121088409423,9.50043311302185,11.961651088409424,9.50932311302185,11.963661088409424,9.51570311302185C11.966121088409423,9.52356311302185,11.971191088409423,9.53277311302185,11.979551088409423,9.54131311302185C11.987901088409423,9.54985311302185,11.997001088409423,9.55511311302185,12.004811088409424,9.55775311302185C12.011141088409424,9.55989311302185,12.020001088409423,9.561613113021851,12.034611088409424,9.55907311302185C12.034611088409424,9.55907311302185,15.450421088409424,8.96580311302185,15.450421088409424,8.96580311302185C17.396621088409425,8.62778311302185,19.110021088409425,10.27892311302185,18.844321088409423,12.23628311302185C18.812921088409425,12.46807311302185,18.753721088409424,12.695233113021851,18.668021088409425,12.912903113021851C18.668021088409425,12.912903113021851,16.964021088409424,17.243513113021848,16.964021088409424,17.243513113021848C16.546721088409424,18.30391311302185,15.680621088409424,19.12461311302185,14.599241088409423,19.484313113021848C13.054401088409424,19.99811311302185,11.415221088409425,20.16481311302185,9.798561088409425,19.97251311302185C9.798561088409425,19.97251311302185,7.681511088409424,19.72071311302185,7.681511088409424,19.72071311302185C6.4173110884094235,19.57031311302185,5.423838088409424,18.567913113021852,5.284775088409424,17.30241311302185C5.284775088409424,17.30241311302185,4.931632288409424,14.08871311302185,4.931632288409424,14.08871311302185C4.799216988409424,12.88370311302185,5.051036088409424,11.66767311302185,5.651112088409424,10.614353113021851C5.651112088409424,10.614353113021851,8.997091088409423,4.7411231130218505,8.997091088409423,4.7411231130218505C8.997091088409423,4.7411231130218505,8.997091088409423,4.7411231130218505,8.997091088409423,4.7411231130218505Z" fill-rule="evenodd" fill="#000000" fill-opacity="1"/></g></g></svg>