<svg xmlns="http://www.w3.org/2000/svg" xmlns:xlink="http://www.w3.org/1999/xlink" fill="none" version="1.1" width="24" height="24" viewBox="0 0 24 24"><g><g><path d="M11.6116,3.3020282C11.8551,3.2327335,12.1119,3.2326699,12.3553,3.3017622C12.8729,3.44863,13.3952,3.584853,13.9192,3.72153C16.380000000000003,4.36334,18.8793,5.01516,21.1028,6.82618C21.1028,6.82618,22.1267,7.66016,22.1267,7.66016C22.542,7.99845,22.7498,8.499179999999999,22.75,9C22.75,9,22.75,16,22.75,16C22.75,16.4142,22.4142,16.75,22,16.75C21.5858,16.75,21.25,16.4142,21.25,16C21.25,16,21.25,11.05668,21.25,11.05668C21.25,11.05668,21.0871,11.189630000000001,21.0871,11.189630000000001C20.3166,11.81834,19.5128,12.30655,18.6888,12.70286C18.7282,12.79397,18.75,12.89444,18.75,13C18.75,13,18.75,17.2939,18.75,17.2939C18.75,18.4272,18.0548,19.4444,16.9989,19.8561C16.9989,19.8561,12.9989,21.4156,12.9989,21.4156C12.3565,21.666,11.6435,21.666,11.0011,21.4156C11.0011,21.4156,7.0011,19.8561,7.0011,19.8561C5.94522,19.4444,5.25,18.4272,5.25,17.2939C5.25,17.2939,5.25,13,5.25,13C5.25,12.89177,5.27292,12.7889,5.31418,12.69597C4.48383,12.29733,3.67373,11.80626,2.89724,11.17382C2.89724,11.17382,1.873302,10.33983,1.873302,10.33983C1.042644,9.66327,1.0422069999999999,8.336929999999999,1.8721459999999999,7.65967C1.8721459999999999,7.65967,2.9129199999999997,6.81037,2.9129199999999997,6.81037C5.120369999999999,5.00904,7.60193,4.36111,10.04453,3.72335C10.56971,3.586228,11.09309,3.449573,11.6116,3.3020282C11.6116,3.3020282,11.6116,3.3020282,11.6116,3.3020282ZM21.25,9.0006C21.25,8.91051,21.2136,8.85102,21.1794,8.8232C21.1794,8.8232,20.1555,7.98922,20.1555,7.98922C18,6.5,16.0794,5.84319,13.6399,5.20216C13.1035,5.06121,12.5519,4.91626,11.984,4.75559C11.4135,4.91742,10.8599,5.06306,10.3217,5.20465C7.9018,5.841279999999999,5.79323,6.39601,3.86128,7.97253C3.86128,7.97253,2.8205,8.82184,2.8205,8.82184C2.7863100000000003,8.849730000000001,2.7499599999999997,8.90931,2.75,8.9994C2.7500400000000003,9.08949,2.78643,9.14898,2.82058,9.1768C2.82058,9.1768,3.84453,10.01078,3.84453,10.01078C5.79285,11.59767,7.92065,12.15681,10.36011,12.79784C10.89653,12.9388,11.4481,13.08373,12.016,13.24441C12.5865,13.08259,13.14,12.93696,13.6782,12.79538C16.098100000000002,12.15875,18.2068,11.60399,20.1387,10.027470000000001C20.1387,10.027470000000001,21.1795,9.17816,21.1795,9.17816C21.2137,9.15029,21.25,9.09054,21.25,9.0006C21.25,9.0006,21.25,9.0006,21.25,9.0006ZM13.9555,14.2766C15.0553,13.9895,16.163,13.7003,17.25,13.3046C17.25,13.3046,17.25,17.2939,17.25,17.2939C17.25,17.8091,16.933999999999997,18.2714,16.454,18.4585C16.454,18.4585,12.454,20.018,12.454,20.018C12.1621,20.1318,11.8379,20.1318,11.546,20.018C11.546,20.018,7.54596,18.4585,7.54596,18.4585C7.06601,18.2714,6.75,17.8091,6.75,17.2939C6.75,17.2939,6.75,13.2961,6.75,13.2961C7.84877,13.6963,8.968689999999999,13.9884,10.08078,14.2785C10.60482,14.4151,11.12713,14.5514,11.6447,14.6982C11.8881,14.7673,12.145,14.7673,12.3884,14.698C12.9069,14.5504,13.4303,14.4138,13.9555,14.2766C13.9555,14.2766,13.9555,14.2766,13.9555,14.2766Z" fill-rule="evenodd" fill="#000000" fill-opacity="1"/></g></g></svg>