<svg xmlns="http://www.w3.org/2000/svg" xmlns:xlink="http://www.w3.org/1999/xlink" fill="none" version="1.1" width="24" height="24" viewBox="0 0 24 24"><g><g><path d="M21.35872212486267,6.35876C21.61502212486267,6.10248,21.647122124862673,5.70687,21.45482212486267,5.41575C21.42742212486267,5.37416,21.39532212486267,5.334709999999999,21.35872212486267,5.2981L18.53032212486267,2.46967C18.389722124862672,2.3290175,18.19892212486267,2.25,18.00002212486267,2.25C17.91532212486267,2.25,17.83212212486267,2.2643243,17.753622124862673,2.2916313C17.64772212486267,2.3284602,17.55042212486267,2.388906,17.46962212486267,2.46967L8.243212124862671,11.69121C8.166732124862671,11.77861,8.11143212486267,11.89003,8.08197212486267,12.00284L7.081972124862671,15.8313C7.014682124862671,16.088900000000002,7.089022124862671,16.3629,7.2772921248626705,16.551099999999998C7.374312124862671,16.6482,7.494082124862671,16.7149,7.622652124862671,16.7476C7.743582124862671,16.778399999999998,7.872292124862671,16.7791,7.997152124862671,16.746499999999997L11.82558212486267,15.7465C11.95451212486267,15.7128,12.07214212486267,15.6454,12.16637212486267,15.5511L21.35872212486267,6.35876ZM19.90232212486267,10.12079C20.00172212486267,12.4688,19.91472212486267,14.8227,19.641322124862672,17.1603C19.487222124862672,18.478,18.42172212486267,19.5276,17.09162212486267,19.6763C13.73582212486267,20.0513,10.264232124862671,20.0513,6.908382124862671,19.6763C5.578272124862671,19.5276,4.512782124862671,18.478,4.358672124862671,17.1603C3.957672124862671,13.7318,3.957672124862671,10.26821,4.358672124862671,6.83968C4.512782124862671,5.522,5.578272124862671,4.47239,6.908382124862671,4.323729999999999C9.10055212486267,4.07872,11.342112124862672,3.99376,13.568522124862671,4.06885C13.679722124862671,4.07261,13.78772212486267,4.03034,13.866322124862672,3.95165L14.858922124862671,2.959093C14.98042212486267,2.837575,14.902222124862671,2.6299580000000002,14.730622124862672,2.620161C12.068462124862672,2.468149,9.371522124862672,2.539099,6.7417721248626705,2.833012C4.729712124862671,3.057889,3.105378124862671,4.6429,2.868825124862671,6.66543C2.4542871248626708,10.20973,2.454288124862671,13.7903,2.868825124862671,17.334600000000002C3.105379124862671,19.3571,4.729712124862671,20.9421,6.7417721248626705,21.167C10.208342124862671,21.5544,13.791722124862671,21.5544,17.25822212486267,21.167C19.27032212486267,20.9421,20.89462212486267,19.3571,21.13122212486267,17.334600000000002C21.45632212486267,14.5545,21.52642212486267,11.75219,21.34152212486267,8.96254C21.330222124862672,8.79194,21.12362212486267,8.71519,21.00272212486267,8.83609L20.019422124862672,9.819420000000001C19.939822124862673,9.89898,19.89762212486267,10.00837,19.90232212486267,10.12079ZM18.00002212486267,4.06066L19.767722124862672,5.82843L11.24961212486267,14.3466L8.856852124862671,14.9716L9.48183212486267,12.5788L18.00002212486267,4.06066Z" fill-rule="evenodd" fill="#000000" fill-opacity="1"/></g></g></svg>