<svg xmlns="http://www.w3.org/2000/svg" xmlns:xlink="http://www.w3.org/1999/xlink" fill="none" version="1.1" width="24" height="24" viewBox="0 0 24 24"><g><g><path d="M2.25,12C2.25,8.272079999999999,5.27208,5.25,9,5.25C9,5.25,17,5.25,17,5.25C19.6234,5.25,21.75,7.37665,21.75,10C21.75,12.62335,19.6234,14.75,17,14.75C17,14.75,8.857140000000001,14.75,8.857140000000001,14.75C7.33836,14.75,6.107139999999999,13.51878,6.107139999999999,12C6.107139999999999,10.48122,7.33836,9.25,8.857140000000001,9.25C8.857140000000001,9.25,16.7143,9.25,16.7143,9.25C17.128500000000003,9.25,17.4643,9.58579,17.4643,10C17.4643,10.41421,17.128500000000003,10.75,16.7143,10.75C16.7143,10.75,8.857140000000001,10.75,8.857140000000001,10.75C8.166789999999999,10.75,7.60714,11.30964,7.60714,12C7.60714,12.69036,8.166789999999999,13.25,8.857140000000001,13.25C8.857140000000001,13.25,17,13.25,17,13.25C18.7949,13.25,20.25,11.79493,20.25,10C20.25,8.20507,18.7949,6.75,17,6.75C17,6.75,9,6.75,9,6.75C6.1005,6.75,3.75,9.10051,3.75,12C3.75,14.8995,6.10051,17.25,9,17.25C9,17.25,16.7143,17.25,16.7143,17.25C17.128500000000003,17.25,17.4643,17.5858,17.4643,18C17.4643,18.4142,17.128500000000003,18.75,16.7143,18.75C16.7143,18.75,9,18.75,9,18.75C5.27208,18.75,2.25,15.7279,2.25,12C2.25,12,2.25,12,2.25,12Z" fill-rule="evenodd" fill="#000000" fill-opacity="1"/></g></g></svg>