<svg xmlns="http://www.w3.org/2000/svg" xmlns:xlink="http://www.w3.org/1999/xlink" fill="none" version="1.1" width="24" height="24" viewBox="0 0 24 24"><defs><clipPath id="master_svg0_77_4445"><rect x="0" y="0" width="24" height="24" rx="0"/></clipPath></defs><g clip-path="url(#master_svg0_77_4445)"><g><path d="M12.7116,2.506404238418579C13.0145,2.679834238418579,13.2654,2.931958238418579,13.4379,3.236345238418579C13.4379,3.236345238418579,21.9949,18.33060023841858,21.9949,18.33060023841858C22.5261,19.26770023841858,22.2009,20.46010023841858,21.2686,20.99390023841858C20.9756,21.16180023841858,20.6441,21.25000023841858,20.3068,21.25000023841858C20.3068,21.25000023841858,3.19286,21.25000023841858,3.19286,21.25000023841858C2.11985,21.25000023841858,1.25,20.37580023841858,1.25,19.29730023841858C1.25,18.95830023841858,1.3378058,18.62520023841858,1.504779,18.33060023841858C1.504779,18.33060023841858,10.06175,3.236345238418579,10.06175,3.236345238418579C10.59294,2.299327538418579,11.7793,1.9725222384185792,12.7116,2.506404238418579C12.7116,2.506404238418579,12.7116,2.506404238418579,12.7116,2.506404238418579ZM11.3592,3.947870238418579C11.3592,3.947870238418579,11.3283,3.995500238418579,11.3283,3.995500238418579C11.3283,3.995500238418579,2.77876,19.023400238418578,2.77876,19.023400238418578C2.73705,19.096700238418578,2.7151199999999998,19.17960023841858,2.7151199999999998,19.26400023841858C2.7151199999999998,19.51320023841858,2.90246,19.718700238418577,3.14382,19.74670023841858C3.14382,19.74670023841858,3.2004099999999998,19.75000023841858,3.2004099999999998,19.75000023841858C3.2004099999999998,19.75000023841858,20.2995,19.75000023841858,20.2995,19.75000023841858C20.3838,19.75000023841858,20.4666,19.72800023841858,20.5398,19.68630023841858C20.756,19.562900238418578,20.8415,19.29820023841858,20.7463,19.07420023841858C20.7463,19.07420023841858,20.7212,19.023400238418578,20.7212,19.023400238418578C20.7212,19.023400238418578,12.1716,3.995500238418579,12.1716,3.995500238418579C12.1285,3.919740238418579,12.0659,3.856990238418579,11.9902,3.813820238418579C11.774,3.690430238418579,11.503,3.751750238418579,11.3592,3.947870238418579C11.3592,3.947870238418579,11.3592,3.947870238418579,11.3592,3.947870238418579ZM12.4826,16.45000023841858C12.4826,16.45000023841858,12.4826,17.55000023841858,12.4826,17.55000023841858C12.4826,17.660500238418578,12.393,17.75000023841858,12.2826,17.75000023841858C12.2826,17.75000023841858,11.21744,17.75000023841858,11.21744,17.75000023841858C11.10698,17.75000023841858,11.01744,17.660500238418578,11.01744,17.55000023841858C11.01744,17.55000023841858,11.01744,16.45000023841858,11.01744,16.45000023841858C11.01744,16.33950023841858,11.10698,16.25000023841858,11.21744,16.25000023841858C11.21744,16.25000023841858,12.2826,16.25000023841858,12.2826,16.25000023841858C12.393,16.25000023841858,12.4826,16.33950023841858,12.4826,16.45000023841858C12.4826,16.45000023841858,12.4826,16.45000023841858,12.4826,16.45000023841858ZM12.4826,9.450000238418578C12.4826,9.450000238418578,12.4826,14.55000023841858,12.4826,14.55000023841858C12.4826,14.66050023841858,12.393,14.750000238418579,12.2826,14.750000238418579C12.2826,14.750000238418579,11.21744,14.750000238418579,11.21744,14.750000238418579C11.10698,14.750000238418579,11.01744,14.66050023841858,11.01744,14.55000023841858C11.01744,14.55000023841858,11.01744,9.450000238418578,11.01744,9.450000238418578C11.01744,9.339540238418579,11.10698,9.250000238418579,11.21744,9.250000238418579C11.21744,9.250000238418579,12.2826,9.250000238418579,12.2826,9.250000238418579C12.393,9.250000238418579,12.4826,9.339540238418579,12.4826,9.450000238418578C12.4826,9.450000238418578,12.4826,9.450000238418578,12.4826,9.450000238418578Z" fill="#000000" fill-opacity="1"/></g></g></svg>