<svg xmlns="http://www.w3.org/2000/svg" fill="currentColor" version="1.1" width="24" height="24" viewBox="0 0 24 24"><g><g><path d="M13.557822073669433,5.5342543940734865C12.687252073669434,4.698894394073486,11.312742073669433,4.698894394073486,10.442182073669434,5.5342543940734865C10.442182073669434,5.5342543940734865,5.815742073669433,9.973584394073487,5.815742073669433,9.973584394073487C5.702382073669433,10.082354394073487,5.626142073669434,10.224044394073486,5.597802073669434,10.378564394073486C5.043672073669434,13.400414394073486,5.002772073669433,16.494034394073488,5.476812073669434,19.529534394073487C5.476812073669434,19.529534394073487,5.589332073669434,20.250034394073488,5.589332073669434,20.250034394073488C5.589332073669434,20.250034394073488,8.565792073669433,20.250034394073488,8.565792073669433,20.250034394073488C8.565792073669433,20.250034394073488,8.565792073669433,14.038634394073487,8.565792073669433,14.038634394073487C8.565792073669433,13.624434394073486,8.901572073669435,13.288674394073487,9.315792073669433,13.288674394073487C9.315792073669433,13.288674394073487,14.684252073669434,13.288674394073487,14.684252073669434,13.288674394073487C15.098452073669433,13.288674394073487,15.434252073669434,13.624434394073486,15.434252073669434,14.038634394073487C15.434252073669434,14.038634394073487,15.434252073669434,20.250034394073488,15.434252073669434,20.250034394073488C15.434252073669434,20.250034394073488,18.410652073669432,20.250034394073488,18.410652073669432,20.250034394073488C18.410652073669432,20.250034394073488,18.523152073669433,19.529534394073487,18.523152073669433,19.529534394073487C18.997252073669433,16.494034394073488,18.956352073669436,13.400414394073486,18.402152073669434,10.378564394073486C18.373852073669433,10.224044394073486,18.297652073669433,10.082354394073487,18.184252073669434,9.973584394073487C18.184252073669434,9.973584394073487,13.557822073669433,5.5342543940734865,13.557822073669433,5.5342543940734865C13.557822073669433,5.5342543940734865,13.557822073669433,5.5342543940734865,13.557822073669433,5.5342543940734865ZM9.403632073669433,4.451934394073486C10.854572073669434,3.0596673940734864,13.145422073669433,3.0596673940734864,14.596352073669433,4.451934394073486C14.596352073669433,4.451934394073486,19.222852073669433,8.891264394073486,19.222852073669433,8.891264394073486C19.563352073669435,9.218064394073487,19.792452073669434,9.643754394073486,19.877552073669435,10.108014394073486C20.462152073669433,13.295634394073486,20.505252073669432,16.558934394073486,20.005252073669432,19.760934394073487C20.005252073669432,19.760934394073487,19.824452073669434,20.918434394073486,19.824452073669434,20.918434394073486C19.749752073669434,21.397134394073486,19.337452073669432,21.750034394073488,18.852952073669435,21.750034394073488C18.852952073669435,21.750034394073488,14.684252073669434,21.750034394073488,14.684252073669434,21.750034394073488C14.269952073669433,21.750034394073488,13.934252073669434,21.414234394073485,13.934252073669434,21.000034394073488C13.934252073669434,21.000034394073488,13.934252073669434,14.788634394073487,13.934252073669434,14.788634394073487C13.934252073669434,14.788634394073487,10.065792073669433,14.788634394073487,10.065792073669433,14.788634394073487C10.065792073669433,14.788634394073487,10.065792073669433,21.000034394073488,10.065792073669433,21.000034394073488C10.065792073669433,21.414234394073485,9.730002073669434,21.750034394073488,9.315792073669433,21.750034394073488C9.315792073669433,21.750034394073488,5.147062073669433,21.750034394073488,5.147062073669433,21.750034394073488C4.662582073669434,21.750034394073488,4.250293073669433,21.397134394073486,4.175538073669434,20.918434394073486C4.175538073669434,20.918434394073486,3.9947750736694334,19.760934394073487,3.9947750736694334,19.760934394073487C3.4947270736694334,16.558934394073486,3.5378740736694336,13.295634394073486,4.122404073669434,10.108014394073486C4.2075370736694335,9.643754394073486,4.436621073669434,9.218064394073487,4.7771920736694335,8.891264394073486C4.7771920736694335,8.891264394073486,9.403632073669433,4.451934394073486,9.403632073669433,4.451934394073486C9.403632073669433,4.451934394073486,9.403632073669433,4.451934394073486,9.403632073669433,4.451934394073486Z" fill-rule="evenodd" fill-opacity="1"/></g></g></svg>
