<svg xmlns="http://www.w3.org/2000/svg" xmlns:xlink="http://www.w3.org/1999/xlink" fill="none" version="1.1" width="24" height="24" viewBox="0 0 24 24"><g><g><path d="M16.73253256263733,4.6585520703125C13.583432562637329,4.3848118703125,10.416582562637329,4.3848119703125,7.267532562637329,4.6585530703125L5.75730256263733,4.7898340703125C4.312232562637329,4.9154510703125,3.141561562637329,6.0150970703125,2.9258635626373293,7.4494870703125C2.472222562637329,10.4661970703125,2.472222562637329,13.5337870703125,2.9258635626373293,16.5505470703125C3.141561562637329,17.984847070312497,4.312232562637329,19.0845470703125,5.75730256263733,19.2101470703125L7.267532562637329,19.341447070312498C10.416582562637329,19.6151470703125,13.583432562637329,19.6151470703125,16.73253256263733,19.341447070312498L18.24273256263733,19.2101470703125C19.68783256263733,19.0845470703125,20.85843256263733,17.984847070312497,21.074132562637327,16.5505470703125C21.52783256263733,13.5337870703125,21.52783256263733,10.4661970703125,21.074132562637327,7.4494870703125C20.85843256263733,6.0150970703125,19.68783256263733,4.9154510703125,18.24273256263733,4.7898340703125L16.73253256263733,4.6585520703125ZM7.397432562637329,6.1529170703125C10.46004256263733,5.8866870703125,13.539932562637329,5.8866870703125,16.60253256263733,6.1529170703125L18.11283256263733,6.2841970703125C18.86713256263733,6.3497670703125,19.47823256263733,6.9237870703125,19.590832562637328,7.6725470703125005C20.022232562637328,10.5413870703125,20.022232562637328,13.4586070703125,19.590832562637328,16.327447070312502C19.58673256263733,16.354647070312502,19.58203256263733,16.3816470703125,19.57663256263733,16.408447070312498L16.05743256263733,12.4982770703125C15.857932562637329,12.2765270703125,15.54583256263733,12.1941470703125,15.262832562637328,12.288487070312499L12.732032562637329,13.1320970703125L9.06055256263733,9.0017270703125C8.92332256263733,8.8473470703125,8.728492562637328,8.756387070312499,8.522022562637328,8.750327070312501C8.315552562637329,8.7442570703125,8.11572256263733,8.8236070703125,7.969662562637329,8.9696670703125L4.097802562637329,12.8415370703125C4.047852562637329,11.1150170703125,4.151652562637329,9.3851570703125,4.409182562637329,7.6725470703125005C4.521782562637329,6.9237870703125,5.1328725626373295,6.3497670703125,5.887202562637329,6.2841970703125L7.397432562637329,6.1529170703125ZM15.50003256263733,7.499997070312499C14.67153256263733,7.499997070312499,14.00003256263733,8.1715770703125,14.00003256263733,8.9999970703125C14.00003256263733,9.8284270703125,14.67153256263733,10.4999970703125,15.50003256263733,10.4999970703125C16.32843256263733,10.4999970703125,17.00003256263733,9.8284270703125,17.00003256263733,8.9999970703125C17.00003256263733,8.1715770703125,16.32843256263733,7.499997070312499,15.50003256263733,7.499997070312499ZM15.271132562637328,13.8668570703125L18.62013256263733,17.587947070312502C18.46223256263733,17.6561470703125,18.29153256263733,17.7002470703125,18.11283256263733,17.7157470703125L16.60263256263733,17.8470470703125C13.539932562637329,18.1133470703125,10.46004256263733,18.1133470703125,7.397432562637329,17.8470470703125L5.887202562637329,17.7157470703125C5.1328725626373295,17.6502470703125,4.521782562637329,17.076247070312498,4.409182562637329,16.327447070312502C4.334642562637329,15.8317470703125,4.2729825626373295,15.3345470703125,4.224192562637329,14.8364470703125L8.467882562637328,10.5927770703125L11.939442562637328,14.4982470703125C12.138762562637329,14.7225470703125,12.45254256263733,14.8063470703125,12.73713256263733,14.7115470703125L15.271132562637328,13.8668570703125Z" fill-rule="evenodd" fill="#000000" fill-opacity="1"/></g></g></svg>