<svg xmlns="http://www.w3.org/2000/svg" xmlns:xlink="http://www.w3.org/1999/xlink" fill="none" version="1.1" width="24" height="24" viewBox="0 0 24 24"><defs><clipPath id="master_svg0_100_5722"><rect x="0" y="0" width="24" height="24" rx="0"/></clipPath></defs><g clip-path="url(#master_svg0_100_5722)"><g><path d="M15.852688581085205,2.5560963C15.852688581085205,2.5560963,6.761719581085205,11.33063,6.761719581085205,11.33063C6.484849481085205,11.60629,6.468562881085205,12.04316,6.712859581085205,12.33779C6.712859581085205,12.33779,6.761719581085205,12.39129,6.761719581085205,12.39129C6.761719581085205,12.39129,15.852288581085205,21.4417,15.852288581085205,21.4417C15.889768581085205,21.479,15.940508581085204,21.5,15.993388581085204,21.5C15.993388581085204,21.5,17.556788581085208,21.5,17.556788581085208,21.5C17.667188581085206,21.5,17.756788581085203,21.4105,17.756788581085203,21.3C17.756788581085203,21.2468,17.735588581085203,21.1958,17.697888581085206,21.1583C17.697888581085206,21.1583,8.389988581085206,11.89085,8.389988581085206,11.89085C8.389988581085206,11.89085,17.688188581085207,2.843341,17.688188581085207,2.843341C17.767388581085207,2.766311,17.769088581085207,2.639689,17.692088581085205,2.5605245C17.654488581085204,2.5218288,17.602788581085207,2.5,17.548788581085205,2.5C17.548788581085205,2.5,15.991588581085205,2.5,15.991588581085205,2.5C15.939768581085206,2.5,15.889968581085204,2.5201108,15.852688581085205,2.5560963C15.852688581085205,2.5560963,15.852688581085205,2.5560963,15.852688581085205,2.5560963Z" fill="#000000" fill-opacity="1"/></g></g></svg>