<svg xmlns="http://www.w3.org/2000/svg" fill="currentColor" version="1.1" width="24" height="24" viewBox="0 0 24 24"><defs><clipPath id="master_svg0_77_4342"><rect x="0" y="0" width="24" height="24" rx="0"/></clipPath></defs><g clip-path="url(#master_svg0_77_4342)"><g><path d="M10.012260000000001,2.0607005C10.012260000000001,2.0607005,11.86578,2.746107,11.86578,2.746107C13.3598,3.29859,14.1497,4.94661,13.6764,6.47228C13.6764,6.47228,18.5413,6.47203,18.5413,6.47203C20.1753,6.47203,21.5,7.81786,21.5,9.47803C21.5,9.55992,21.4967,9.64179,21.4901,9.723410000000001C21.4901,9.723410000000001,20.8439,18.7394,20.8439,18.7394C20.7181,20.2992,19.4355,21.5,17.8951,21.5C17.8951,21.5,4.4724699999999995,21.5,4.4724699999999995,21.5C3.3831059999999997,21.5,2.5,20.6028,2.5,19.496C2.5,19.496,2.5,8.47603,2.5,8.47603C2.5,7.36925,3.3831059999999997,6.47203,4.4724699999999995,6.47203C4.4724699999999995,6.47203,7.38187,6.47192,7.38187,6.47192C7.38187,6.47192,8.748190000000001,2.659567,8.748190000000001,2.659567C8.93448,2.139552,9.50042,1.871431,10.012260000000001,2.0607005C10.012260000000001,2.0607005,10.012260000000001,2.0607005,10.012260000000001,2.0607005ZM6.738,7.97454C6.738,7.97454,4.4724699999999995,7.97503,4.4724699999999995,7.97503C4.2195800000000006,7.97503,4.01116,8.16843,3.9826699999999997,8.4176C3.9826699999999997,8.4176,3.97935,8.47603,3.97935,8.47603C3.97935,8.47603,3.97935,19.496,3.97935,19.496C3.97935,19.7529,4.16972,19.9647,4.41496,19.9936C4.41496,19.9936,4.4724699999999995,19.997,4.4724699999999995,19.997C4.4724699999999995,19.997,6.738,19.997,6.738,19.997C6.84846,19.997,6.938,19.9075,6.938,19.797C6.938,19.797,6.938,8.1745,6.938,8.1745C6.93804,8.06404,6.8485,7.9745,6.73804,7.9745C6.73803,7.9745,6.73801,7.9745,6.738,7.97454C6.738,7.97454,6.738,7.97454,6.738,7.97454ZM11.35981,4.15846C11.35981,4.15846,10.15871,3.71443,10.15871,3.71443C10.055109999999999,3.6761299999999997,9.94007,3.72907,9.901769999999999,3.83268C9.90154,3.83329,9.90132,3.83391,9.90109,3.83453C9.90109,3.83453,8.42873,7.94177,8.42873,7.94177C8.42097,7.96343,8.417,7.98626,8.417,8.009260000000001C8.417,8.009260000000001,8.417,19.797,8.417,19.797C8.417,19.9075,8.506540000000001,19.997,8.617,19.997C8.617,19.997,17.8951,19.997,17.8951,19.997C18.6356,19.997,19.2571,19.4419,19.3597,18.7059C19.3597,18.7059,19.3695,18.6167,19.3695,18.6167C19.3695,18.6167,20.0157,9.600719999999999,20.0157,9.600719999999999C20.019,9.55991,20.0206,9.51897,20.0206,9.47803C20.0206,8.67759,19.4048,8.02329,18.6283,7.97758C18.6283,7.97758,18.5414,7.97503,18.5414,7.97503C18.5414,7.97503,11.9305,7.97541,11.9305,7.97541C11.82004,7.97541,11.73049,7.88588,11.73048,7.77542C11.73048,7.75532,11.73351,7.73534,11.73947,7.71615C11.73947,7.71615,12.26549,6.02048,12.26549,6.02048C12.4937,5.28484,12.13297,4.49465,11.4411,4.19128C11.4411,4.19128,11.35981,4.15846,11.35981,4.15846C11.35981,4.15846,11.35981,4.15846,11.35981,4.15846Z" fill-opacity="1"/></g></g></svg>
