<svg xmlns="http://www.w3.org/2000/svg" xmlns:xlink="http://www.w3.org/1999/xlink" fill="none" version="1.1" width="24" height="24" viewBox="0 0 24 24"><defs><clipPath id="master_svg0_77_4436"><rect x="0" y="0" width="24" height="24" rx="0"/></clipPath></defs><g clip-path="url(#master_svg0_77_4436)"><g><path d="M12,2.5C17.5227,2.5,22,6.75327,22,11.99997C22,17.1908,17.6175,21.4094,12.1759,21.4985C12.1759,21.4985,12,21.5,12,21.5C10.26805,21.5043,8.56283,21.075,7.04137,20.2514C7.04137,20.2514,4.5613600000000005,21.3253,4.5613600000000005,21.3253C4.1009,21.5245,3.56538,21.3145,3.36523,20.8562C3.28681,20.6767,3.26903,20.4767,3.31455,20.2862C3.31455,20.2862,3.94864,17.6353,3.94864,17.6353C2.723635,16.0587,2,14.1094,2,11.99998C2,6.75328,6.47727,2.5,12,2.5C12,2.5,12,2.5,12,2.5ZM12,3.85712C7.21637,3.85712,3.36364,7.51689,3.36364,11.99997C3.36364,13.6873,3.9081900000000003,15.296,4.909549999999999,16.65C4.909549999999999,16.65,5.02728,16.8051,5.02728,16.8051C5.02728,16.8051,5.42592,17.3181,5.42592,17.3181C5.42592,17.3181,4.85137,19.7194,4.85137,19.7194C4.85137,19.7194,7.10955,18.7422,7.10955,18.7422C7.10955,18.7422,7.69501,19.0607,7.69501,19.0607C8.992740000000001,19.7659,10.46547,20.1428,12,20.1428C16.7836,20.1428,20.6364,16.483,20.6364,11.99995C20.6364,7.51688,16.7836,3.85712,12,3.85712C12,3.85712,12,3.85712,12,3.85712ZM8.125,11C8.60825,11,9,11.39175,9,11.875C9,12.35825,8.60825,12.75,8.125,12.75C8.125,12.75,8.125,12.75,8.125,12.75C7.64175,12.75,7.25,12.35825,7.25,11.875C7.25,11.39175,7.64175,11,8.125,11C8.125,11,8.125,11,8.125,11C8.125,11,8.125,11,8.125,11ZM16.125,11C16.6082,11,17,11.39175,17,11.875C17,12.35825,16.6082,12.75,16.125,12.75C16.125,12.75,16.125,12.75,16.125,12.75C15.6418,12.75,15.25,12.35825,15.25,11.875C15.25,11.39175,15.6418,11,16.125,11C16.125,11,16.125,11,16.125,11C16.125,11,16.125,11,16.125,11ZM12.125,11C12.6082,11,13,11.39175,13,11.875C13,12.35825,12.6082,12.75,12.125,12.75C12.125,12.75,12.125,12.75,12.125,12.75C11.64175,12.75,11.25,12.35825,11.25,11.875C11.25,11.39175,11.64175,11,12.125,11C12.125,11,12.125,11,12.125,11C12.125,11,12.125,11,12.125,11Z" fill="#000000" fill-opacity="1"/></g></g></svg>