<svg xmlns="http://www.w3.org/2000/svg" fill="none" version="1.1" width="24" height="24" viewBox="0 0 24 24"><defs><clipPath id="master_svg0_77_4430"><rect x="0" y="0" width="24" height="24" rx="0"/></clipPath></defs><g clip-path="url(#master_svg0_77_4430)"><g><path d="M12.25,2C15.0056,2,17.2395,4.23388,17.2395,6.9895C17.2395,6.9895,17.2395,9.0105,17.2395,9.0105C17.2395,10.85723,16.2362,12.4696,14.745,13.3324C14.745,13.3324,14.7448,13.5,14.7448,13.5C14.7448,13.5,20.2325,16.4329,20.2325,16.4329C21.4383,17.0774,22.1302,18.3911,21.9796,19.75C21.8375,21.0309,20.755,22,19.4663,22C19.4663,22,5.033720000000001,22,5.033720000000001,22C3.7450099999999997,22,2.662467,21.0309,2.5204487,19.75C2.369777,18.3911,3.061692,17.0774,4.26751,16.4329C4.26751,16.4329,9.75524,13.5,9.75524,13.5C9.75524,13.5,9.75502,13.3324,9.75502,13.3324C8.263770000000001,12.4696,7.26049,10.85723,7.26049,9.0105C7.26049,9.0105,7.26049,6.9895,7.26049,6.9895C7.26049,4.23388,9.49437,2,12.25,2C12.25,2,12.25,2,12.25,2ZM12.25,3.5C10.36295,3.5,8.82574,4.99789,8.762509999999999,6.86954C8.762509999999999,6.86954,8.76049,6.9895,8.76049,6.9895C8.76049,6.9895,8.76049,9.0105,8.76049,9.0105C8.76049,10.22641,9.38643,11.33177,10.39281,11.96554C10.39281,11.96554,10.50618,12.034,10.50618,12.034C10.50618,12.034,11.15418,12.4089,11.15418,12.4089C11.21589,12.4446,11.25393,12.5104,11.25403,12.5817C11.25403,12.5817,11.25628,14.2784,11.25628,14.2784C11.25638,14.3523,11.21573,14.4202,11.15055,14.4551C11.15055,14.4551,4.97455,17.7559,4.97455,17.7559C4.30973,18.1112,3.9282399999999997,18.8355,4.0113199999999996,19.5847C4.0662,20.0797,4.4663900000000005,20.4603,4.95575,20.4971C4.95575,20.4971,5.033720000000001,20.5,5.033720000000001,20.5C5.033720000000001,20.5,19.4663,20.5,19.4663,20.5C19.9905,20.5,20.4309,20.1057,20.4887,19.5847C20.568,18.8695,20.224,18.1771,19.6143,17.8066C19.6143,17.8066,19.5255,17.7559,19.5255,17.7559C19.5255,17.7559,13.3494,14.4551,13.3494,14.4551C13.2843,14.4202,13.2436,14.3523,13.2437,14.2784C13.2437,14.2784,13.246,12.5817,13.246,12.5817C13.2461,12.5104,13.2841,12.4446,13.3458,12.4089C13.3458,12.4089,13.9938,12.034,13.9938,12.034C15.028,11.43566,15.6909,10.35235,15.7369,9.14512C15.7369,9.14512,15.7395,9.0105,15.7395,9.0105C15.7395,9.0105,15.7395,6.9895,15.7395,6.9895C15.7395,5.0623000000000005,14.1772,3.5,12.25,3.5C12.25,3.5,12.25,3.5,12.25,3.5Z" fill="currentColor" fill-opacity="1"/></g></g></svg>
