<svg xmlns="http://www.w3.org/2000/svg" fill="currentColor" version="1.1" width="24" height="24" viewBox="0 0 24 24"><g transform="matrix(0,1,-1,0,24,-24)"><g transform="matrix(0,-1,1,0,15.000052452087402,42.00000476837158)"><path d="M30.000028610229492,25.49997615814209C30.828458610229493,25.49997615814209,31.500028610229492,26.171576158142088,31.500028610229492,26.99997615814209C31.500028610229492,27.828376158142092,30.828458610229493,28.49997615814209,30.000028610229492,28.49997615814209C29.17160161022949,28.49997615814209,28.500028574017794,27.828376158142092,28.500028610229492,26.99997615814209C28.50002864644119,26.171576158142088,29.17160161022949,25.49997615814209,30.000028610229492,25.49997615814209C30.000028610229492,25.49997615814209,30.000028610229492,25.49997615814209,30.000028610229492,25.49997615814209ZM30.000028610229492,13.499976158142092C30.828458610229493,13.49997619435379,31.500028610229492,14.17154915814209,31.500028610229492,14.99997615814209C31.500028610229492,15.82840615814209,30.828458610229493,16.49997615814209,30.000028610229492,16.49997615814209C29.17160161022949,16.49997615814209,28.500029098554492,15.82840615814209,28.500029134766493,14.99997615814209C28.50002917097749,14.17154915814209,29.171602610229492,13.49997612193039,30.000028610229492,13.499976158142092C30.000028610229492,13.499976158142092,30.000028610229492,13.499976158142092,30.000028610229492,13.499976158142092ZM30.000028610229492,19.49997615814209C30.828458610229493,19.49997615814209,31.500028610229492,20.17154615814209,31.500028610229492,20.99997615814209C31.500028610229492,21.82840615814209,30.828458610229493,22.49997615814209,30.000028610229492,22.49997615814209C29.17160161022949,22.49997615814209,28.500028836286493,21.82840615814209,28.50002887249749,20.99997615814209C28.500028908709492,20.17154615814209,29.17160161022949,19.49997615814209,30.000028610229492,19.49997615814209C30.000028610229492,19.49997615814209,30.000028610229492,19.49997615814209,30.000028610229492,19.49997615814209Z" fill="#000000" fill-opacity="1"/><path d="M30.000028610229492,13.49997615814209C30.828458610229493,13.49997615814209,31.500028610229492,14.17154915814209,31.500028610229492,14.99997615814209C31.500028610229492,15.82840615814209,30.828458610229493,16.49997615814209,30.000028610229492,16.49997615814209C29.17160161022949,16.49997615814209,28.500028610229492,15.82840615814209,28.500028610229492,14.99997615814209C28.500028610229492,14.17154915814209,29.171602610229492,13.49997615814209,30.000028610229492,13.49997615814209ZM30.000028610229492,19.49997615814209C30.828458610229493,19.49997615814209,31.500028610229492,20.17154615814209,31.500028610229492,20.99997615814209C31.500028610229492,21.82840615814209,30.828458610229493,22.49997615814209,30.000028610229492,22.49997615814209C29.17160161022949,22.49997615814209,28.500028610229492,21.82840615814209,28.500028610229492,20.99997615814209C28.500028610229492,20.17154615814209,29.17160161022949,19.49997615814209,30.000028610229492,19.49997615814209ZM30.000028610229492,25.49997615814209C30.828458610229493,25.49997615814209,31.500028610229492,26.171576158142088,31.500028610229492,26.99997615814209C31.500028610229492,27.828376158142092,30.828458610229493,28.49997615814209,30.000028610229492,28.49997615814209C29.17160161022949,28.49997615814209,28.500028610229492,27.828376158142092,28.500028610229492,26.99997615814209C28.500028610229492,26.171576158142088,29.17160161022949,25.49997615814209,30.000028610229492,25.49997615814209Z" fill-rule="evenodd" fill="#000000" fill-opacity="1"/></g></g></svg>
