<svg xmlns="http://www.w3.org/2000/svg" xmlns:xlink="http://www.w3.org/1999/xlink" fill="none" version="1.1" width="24" height="24" viewBox="0 0 24 24"><defs><clipPath id="master_svg0_77_4284"><rect x="0" y="0" width="24" height="24" rx="0"/></clipPath></defs><g clip-path="url(#master_svg0_77_4284)"><g><path d="M6.87713,2.5C7.21735,2.5,7.55117,2.5893990000000002,7.84291,2.758654C7.84291,2.758654,21.0883,10.44339,21.0883,10.44339C21.0883,10.44339,21.0883,10.44339,21.0883,10.44339C21.9773,10.95914,22.2656,12.07409,21.7322,12.9337C21.5737,13.1892,21.3526,13.403,21.0883,13.5563C21.0883,13.5563,7.84291,21.2411,7.84291,21.2411C7.84291,21.2411,7.84291,21.2411,7.84291,21.2411C6.95395,21.7568,5.800903,21.4781,5.267508,20.6185C5.0924612,20.3364,5,20.0136,5,19.6846C5,19.6846,5,4.31512,5,4.31512C5,4.31512,5,4.31512,5,4.31512C5,3.312656,5.840415,2.5,6.87712,2.5C6.87712,2.5,6.87713,2.5,6.87713,2.5C6.87713,2.5,6.87713,2.5,6.87713,2.5ZM6.87713,3.86134C6.63922,3.86134,6.43897,4.03355,6.41114,4.26202C6.41114,4.26202,6.40785,4.31511,6.40785,4.31511C6.40785,4.31511,6.40785,19.6846,6.40785,19.6846C6.40785,19.6846,6.40785,19.6846,6.40785,19.6846C6.40785,19.9352,6.61779,20.1385,6.87697,20.1385C6.94353,20.1385,7.00934,20.1249,7.0700199999999995,20.0984C7.0700199999999995,20.0984,7.1183499999999995,20.0739,7.1183499999999995,20.0739C7.1183499999999995,20.0739,20.3642,12.38874,20.3642,12.38874C20.3642,12.38874,20.3642,12.38874,20.3642,12.38874C20.586399999999998,12.25971,20.6584,11.98094,20.524900000000002,11.7661C20.494799999999998,11.71762,20.4556,11.67501,20.4093,11.64046C20.4093,11.64046,20.3642,11.61097,20.3642,11.61097C20.3642,11.61097,7.11833,3.92578,7.11833,3.92578C7.11833,3.92578,7.11833,3.92578,7.11833,3.92578C7.04544,3.88359,6.96207,3.86134,6.87712,3.86134C6.87712,3.86134,6.87713,3.86134,6.87713,3.86134C6.87713,3.86134,6.87713,3.86134,6.87713,3.86134Z" fill="#000000" fill-opacity="1"/></g></g></svg>