<svg xmlns="http://www.w3.org/2000/svg" xmlns:xlink="http://www.w3.org/1999/xlink" fill="none" version="1.1" width="24" height="24" viewBox="0 0 24 24"><defs><clipPath id="master_svg0_100_5333"><rect x="0" y="0" width="24" height="24" rx="0"/></clipPath></defs><g clip-path="url(#master_svg0_100_5333)"><g><path d="M8.697393530426025,2.5560963C8.697393530426025,2.5560963,17.788333530426023,11.33063,17.788333530426023,11.33063C18.065233530426028,11.60629,18.081533530426025,12.04316,17.837233530426026,12.33779C17.837233530426026,12.33779,17.788333530426023,12.39129,17.788333530426023,12.39129C17.788333530426023,12.39129,8.697803530426025,21.4417,8.697803530426025,21.4417C8.660323530426025,21.479,8.609583530426026,21.5,8.556693530426026,21.5C8.556693530426026,21.5,6.993333530426026,21.5,6.993333530426026,21.5C6.882876830426025,21.5,6.793333530426025,21.4105,6.793333530426025,21.3C6.793333530426025,21.2468,6.814524730426025,21.1958,6.852220530426026,21.1583C6.852220530426026,21.1583,16.160093530426025,11.89085,16.160093530426025,11.89085C16.160093530426025,11.89085,6.861856030426026,2.843341,6.861856030426026,2.843341C6.782691030426025,2.766311,6.780960530426025,2.639689,6.8579907304260255,2.5605245C6.895642530426025,2.5218288,6.947340530426025,2.5,7.001331530426025,2.5C7.001331530426025,2.5,8.558503530426025,2.5,8.558503530426025,2.5C8.610323530426026,2.5,8.660113530426026,2.5201108,8.697393530426025,2.5560963C8.697393530426025,2.5560963,8.697393530426025,2.5560963,8.697393530426025,2.5560963Z" fill="#000000" fill-opacity="1"/></g></g></svg>