<svg xmlns="http://www.w3.org/2000/svg" xmlns:xlink="http://www.w3.org/1999/xlink" fill="none" version="1.1" width="24" height="24" viewBox="0 0 24 24"><defs><clipPath id="master_svg0_77_4404"><rect x="0" y="0" width="24" height="24" rx="0"/></clipPath></defs><g clip-path="url(#master_svg0_77_4404)"><g><path d="M12.4999,2.2C12.4999,2.2,12.4996,3.2995,12.4996,3.2995C12.4994,3.40993,12.4099,3.4994300000000003,12.2995,3.49951C12.2995,3.49951,5,3.5,5,3.5C4.20116,3.5,3.54817,4.12446,3.5025500000000003,4.91186C3.5025500000000003,4.91186,3.5,5,3.5,5C3.5,5,3.5,19,3.5,19C3.5,19.7988,4.12446,20.4518,4.91186,20.4975C4.91186,20.4975,5,20.5,5,20.5C5,20.5,19,20.5,19,20.5C19.7988,20.5,20.4518,19.8755,20.4975,19.0881C20.4975,19.0881,20.5,19,20.5,19C20.5,19,20.4995,11.7,20.4995,11.7C20.4995,11.58954,20.589,11.49999,20.6995,11.49999C20.6995,11.49999,20.6995,11.49999,20.6995,11.5C20.6995,11.5,21.8,11.5,21.8,11.5C21.9105,11.5,22,11.41046,22,11.3C22,11.3,22,8.7,22,8.7C22,8.58954,21.9105,8.5,21.8,8.5C21.8,8.5,20.7,8.5,20.7,8.5C20.5896,8.49998,20.5,8.41045,20.5,8.3C20.5,8.3,20.4996,4.457,20.4996,4.457C20.4996,4.457,13.2827,11.67444,13.2827,11.67444C13.2046,11.75255,13.0779,11.75255,12.9998,11.67445C12.9998,11.67445,12.9998,11.67445,12.9998,11.67444C12.9998,11.67444,12.222,10.89663,12.222,10.89663C12.1439,10.81852,12.1439,10.69189,12.222,10.61378C12.222,10.61378,19.3351,3.5,19.3351,3.5C19.3351,3.5,15.7,3.5,15.7,3.5C15.5895,3.5,15.5,3.41046,15.5,3.3C15.5,3.3,15.5,2.2,15.5,2.2C15.5,2.0895431,15.5895,2.0000000372168,15.7,2.0000000372168C15.7,2.0000000372168,21.25,2.0000000372168,21.25,2.0000000372168C21.6642,2.0000000372168,22,2.335786,22,2.75C22,2.75,22,19,22,19C22,20.6569,20.6569,22,19,22C19,22,5,22,5,22C3.34315,22,2,20.6569,2,19C2,19,2,5,2,5C2,3.34315,3.34315,2.0000000372168,5,2.0000000372168C5,2.0000000372168,12.3,2.0000000372168,12.3,2.0000000372168C12.4105,1.9999333572,12.5,2.0894764,12.5,2.199933C12.5,2.199956,12.5,2.1999779999999998,12.4999,2.2C12.4999,2.2,12.4999,2.2,12.4999,2.2Z" fill="#000000" fill-opacity="1"/></g></g></svg>