<svg xmlns="http://www.w3.org/2000/svg" xmlns:xlink="http://www.w3.org/1999/xlink" fill="none" version="1.1" width="24" height="24" viewBox="0 0 24 24"><defs><clipPath id="master_svg0_77_4471"><rect x="0" y="0" width="24" height="24" rx="0"/></clipPath></defs><g clip-path="url(#master_svg0_77_4471)"><g><path d="M12,1C18.0751,1,23,5.92487,23,12C23,18.0751,18.0751,23,12,23C5.92487,23,1,18.0751,1,12C1,5.92487,5.92487,1,12,1C12,1,12,1,12,1ZM12,2.5C6.75329,2.5,2.5,6.75329,2.5,12C2.5,17.2467,6.75329,21.5,12,21.5C17.2467,21.5,21.5,17.2467,21.5,12C21.5,6.75329,17.2467,2.5,12,2.5C12,2.5,12,2.5,12,2.5ZM7.0229,13.2587C7.06438,13.1986,7.14677,13.1835,7.20691,13.2249C7.22183,13.2352,7.23544,13.2445,7.24775,13.2528C8.604320000000001,14.1693,10.23967,14.7044,12,14.7044C13.7599,14.7044,15.3948,14.1696,16.7512,13.2536C16.7512,13.2536,16.7791,13.2385,16.7791,13.2385C16.7985,13.2304,16.8194,13.2262,16.8407,13.2262C16.9289,13.2262,17.0005,13.2977,17.0005,13.386C17.0005,13.386,17.0003,14.7498,17.0003,14.7498C17.0003,14.822,16.9613,14.8887,16.8983,14.9241C16.8264,14.9645,16.769,14.9963,16.726100000000002,15.0193C15.3188,15.7755,13.7095,16.2044,12,16.2044C10.27293,16.2044,8.64813,15.7666,7.23051,14.9959C7.19767,14.978,7.15465,14.9541,7.10146,14.9241C7.03861,14.8887,6.99973,14.8221,6.99966,14.75C6.99966,14.75,6.99951,13.3338,6.99951,13.3338C6.99951,13.3338,7.00219,13.3074,7.00219,13.3074C7.00574,13.29,7.01275,13.2735,7.0229,13.2587C7.0229,13.2587,7.0229,13.2587,7.0229,13.2587ZM8,9C8.55228,9,9,9.44771,9,10C9,10.55229,8.55228,11,8,11C7.44772,11,7,10.55229,7,10C7,9.44771,7.44772,9,8,9C8,9,8,9,8,9ZM16,9C16.552300000000002,9,17,9.44771,17,10C17,10.55229,16.552300000000002,11,16,11C15.4477,11,15,10.55229,15,10C15,9.44771,15.4477,9,16,9C16,9,16,9,16,9Z" fill="#000000" fill-opacity="1"/></g></g></svg>