<svg xmlns="http://www.w3.org/2000/svg" xmlns:xlink="http://www.w3.org/1999/xlink" fill="none" version="1.1" width="24" height="24" viewBox="0 0 24 24"><defs><clipPath id="master_svg0_77_4354"><rect x="0" y="0" width="24" height="24" rx="0"/></clipPath></defs><g clip-path="url(#master_svg0_77_4354)"><g><path d="M12.92280023841858,2.224502761581421C13.334100238418578,2.435648761581421,13.667000238418579,2.781941761581421,13.869900238418579,3.2097697615814207C13.869900238418579,3.2097697615814207,15.830400238418578,7.342089761581421,15.830400238418578,7.342089761581421C15.830400238418578,7.342089761581421,20.21420023841858,8.00473976158142,20.21420023841858,8.00473976158142C21.35400023841858,8.17701976158142,22.143700238418578,9.277859761581421,21.97810023841858,10.463529761581421C21.912100238418578,10.935659761581421,21.69840023841858,11.37201976158142,21.37000023841858,11.705039761581421C21.37000023841858,11.705039761581421,18.19780023841858,14.92159976158142,18.19780023841858,14.92159976158142C18.19780023841858,14.92159976158142,18.94670023841858,19.46349976158142,18.94670023841858,19.46349976158142C19.14140023841858,20.644299761581422,18.37900023841858,21.76579976158142,17.24380023841858,21.96829976158142C16.79180023841858,22.04899976158142,16.326800238418578,21.97239976158142,15.920800238418579,21.75039976158142C15.920800238418579,21.75039976158142,11.999860238418579,19.605999761581423,11.999860238418579,19.605999761581423C11.999860238418579,19.605999761581423,8.07890023841858,21.75039976158142,8.07890023841858,21.75039976158142C7.059450238418579,22.30789976158142,5.79855023841858,21.900199761581423,5.262600238418579,20.83969976158142C5.049180238418579,20.41739976158142,4.975530238418579,19.933699761581423,5.053060238418579,19.46349976158142C5.053060238418579,19.46349976158142,5.801900238418579,14.92159976158142,5.801900238418579,14.92159976158142C5.801900238418579,14.92159976158142,2.629772238418579,11.705039761581421,2.629772238418579,11.705039761581421C1.8050252384185792,10.868739761581422,1.788149238418579,9.49526976158142,2.592079238418579,8.63731976158142C2.9122082384185792,8.295679761581422,3.331670238418579,8.07333976158142,3.7855402384185792,8.00473976158142C3.7855402384185792,8.00473976158142,8.169310238418579,7.342089761581421,8.169310238418579,7.342089761581421C8.169310238418579,7.342089761581421,10.129800238418579,3.2097697615814207,10.129800238418579,3.2097697615814207C10.639520238418578,2.135376761581421,11.889990238418578,1.6942567615814208,12.92280023841858,2.224502761581421C12.92280023841858,2.224502761581421,12.92280023841858,2.224502761581421,12.92280023841858,2.224502761581421ZM12.232500238418579,3.595179761581421C11.990870238418578,3.470779761581421,11.702010238418579,3.5579997615814207,11.559180238418579,3.788429761581421C11.559180238418579,3.788429761581421,11.52889023841858,3.844119761581421,11.52889023841858,3.844119761581421C11.52889023841858,3.844119761581421,9.18682023841858,8.79551976158142,9.18682023841858,8.79551976158142C9.18682023841858,8.79551976158142,3.949780238418579,9.589519761581421,3.949780238418579,9.589519761581421C3.835450238418579,9.60684976158142,3.729790238418579,9.66301976158142,3.6491502384185788,9.749339761581421C3.462210238418579,9.94942976158142,3.451450238418579,10.260499761581421,3.614310238418579,10.47336976158142C3.614310238418579,10.47336976158142,3.658640238418579,10.52441976158142,3.658640238418579,10.52441976158142C3.658640238418579,10.52441976158142,7.448200238418579,14.378499761581422,7.448200238418579,14.378499761581422C7.448200238418579,14.378499761581422,6.553600238418579,19.82069976158142,6.553600238418579,19.82069976158142C6.534070238418579,19.93949976158142,6.552630238418579,20.06169976158142,6.606390238418579,20.16839976158142C6.731750238418579,20.417199761581422,7.014570238418579,20.523799761581422,7.259950238418579,20.424899761581422C7.259950238418579,20.424899761581422,7.3158202384185795,20.39849976158142,7.3158202384185795,20.39849976158142C7.3158202384185795,20.39849976158142,11.999970238418578,17.82899976158142,11.999970238418578,17.82899976158142C11.999970238418578,17.82899976158142,16.68410023841858,20.39849976158142,16.68410023841858,20.39849976158142C16.78640023841858,20.45459976158142,16.90350023841858,20.47389976158142,17.01740023841858,20.45349976158142C17.282900238418577,20.40599976158142,17.46750023841858,20.15829976158142,17.45320023841858,19.88429976158142C17.45320023841858,19.88429976158142,17.44630023841858,19.82069976158142,17.44630023841858,19.82069976158142C17.44630023841858,19.82069976158142,16.55170023841858,14.378499761581422,16.55170023841858,14.378499761581422C16.55170023841858,14.378499761581422,20.34130023841858,10.52441976158142,20.34130023841858,10.52441976158142C20.42400023841858,10.44027976158142,20.47790023841858,10.330029761581422,20.494500238418578,10.21073976158142C20.53320023841858,9.93257976158142,20.36450023841858,9.67288976158142,20.110300238418578,9.602359761581422C20.110300238418578,9.602359761581422,20.05020023841858,9.589519761581421,20.05020023841858,9.589519761581421C20.05020023841858,9.589519761581421,14.81310023841858,8.79551976158142,14.81310023841858,8.79551976158142C14.81310023841858,8.79551976158142,12.47100023841858,3.844119761581421,12.47100023841858,3.844119761581421C12.430100238418579,3.757639761581421,12.368300238418579,3.684349761581421,12.292100238418579,3.631179761581421C12.292100238418579,3.631179761581421,12.232500238418579,3.595179761581421,12.232500238418579,3.595179761581421C12.232500238418579,3.595179761581421,12.232500238418579,3.595179761581421,12.232500238418579,3.595179761581421Z" fill="#000000" fill-opacity="1"/></g></g></svg>