<svg xmlns="http://www.w3.org/2000/svg" xmlns:xlink="http://www.w3.org/1999/xlink" fill="none" version="1.1" width="24" height="24" viewBox="0 0 24 24"><defs><clipPath id="master_svg0_77_4453"><rect x="0" y="0" width="24" height="24" rx="0"/></clipPath></defs><g clip-path="url(#master_svg0_77_4453)"><g><path d="M12,1C18.0751,1,23,5.92487,23,12C23,18.0751,18.0751,23,12,23C5.92487,23,1,18.0751,1,12C1,5.92487,5.92487,1,12,1C12,1,12,1,12,1ZM12.25,6C10.36295,6,8.82574,7.49789,8.762509999999999,9.36954C8.762509999999999,9.36954,8.76049,9.4895,8.76049,9.4895C8.76049,9.4895,8.76049,11.5105,8.76049,11.5105C8.76049,12.7264,9.38643,13.8318,10.39281,14.4655C10.39281,14.4655,10.50618,14.534,10.50618,14.534C10.50618,14.534,11.1542,14.9089,11.1542,14.9089C11.2159,14.9446,11.2539,15.0104,11.254,15.0817C11.254,15.0817,11.2563,16.778399999999998,11.2563,16.778399999999998C11.2564,16.8523,11.2157,16.9202,11.1506,16.9551C9.32354,17.9316,7.95328,18.664,7.03978,19.1523C6.86626,19.2451,6.60597,19.3842,6.25893,19.5697C6.59507,19.8123,6.85164,19.9881,7.02864,20.097C8.4748,20.9868,10.17746,21.5,12,21.5C13.9273,21.5,15.7205,20.9261,17.2181,19.9398C17.3815,19.8323,17.6184,19.6601,17.9289,19.4233C17.6013,19.2467,17.3556,19.1143,17.1918,19.0261C16.3378,18.5659,15.0568,17.8756,13.3489,16.955199999999998C13.284,16.920299999999997,13.2436,16.8525,13.2437,16.7789C13.2437,16.7789,13.246,15.0817,13.246,15.0817C13.2461,15.0104,13.2841,14.9446,13.3458,14.9089C13.3458,14.9089,13.9938,14.534,13.9938,14.534C15.028,13.9357,15.6909,12.8523,15.7369,11.6451C15.7369,11.6451,15.7395,11.5105,15.7395,11.5105C15.7395,11.5105,15.7395,9.4895,15.7395,9.4895C15.7395,7.5623,14.1772,6,12.25,6C12.25,6,12.25,6,12.25,6ZM12,2.5C6.75329,2.5,2.5,6.75329,2.5,12C2.5,14.1996,3.24753,16.2245,4.50239,17.8347C4.60572,17.9673,4.7610600000000005,18.1504,4.96841,18.3841C5.02984,18.4532,5.13066,18.4713,5.21223,18.4277C5.49127,18.2786,5.70572,18.164,5.85557,18.0839C6.72216,17.6208,8.02205,16.9262,9.75524,16C9.75524,16,9.75502,15.8324,9.75502,15.8324C8.263770000000001,14.9696,7.26049,13.3572,7.26049,11.5105C7.26049,11.5105,7.26049,9.4895,7.26049,9.4895C7.26049,6.73388,9.49437,4.5,12.25,4.5C15.0056,4.5,17.2395,6.73388,17.2395,9.4895C17.2395,9.4895,17.2395,11.5105,17.2395,11.5105C17.2395,13.3572,16.2362,14.9696,14.745,15.8324C14.745,15.8324,14.7448,16,14.7448,16C16.3749,16.8714,17.5975,17.5249,18.4125,17.9605C18.5384,18.0278,18.7168,18.1232,18.9478,18.2467C19.0311,18.2912,19.1343,18.2714,19.1951,18.199C19.4046,17.95,19.5612,17.7549,19.6647,17.6137C20.8186,16.041,21.5,14.1001,21.5,12C21.5,6.75329,17.2467,2.5,12,2.5C12,2.5,12,2.5,12,2.5Z" fill="#000000" fill-opacity="1"/></g></g></svg>