<svg xmlns="http://www.w3.org/2000/svg" xmlns:xlink="http://www.w3.org/1999/xlink" fill="none" version="1.1" width="24" height="24" viewBox="0 0 24 24"><defs><clipPath id="master_svg0_77_4244"><rect x="0" y="0" width="24" height="24" rx="0"/></clipPath></defs><g clip-path="url(#master_svg0_77_4244)"><g><path d="M16.5,1.5C17.328400000000002,1.5,18,2.171573,18,3C18,3,18,4.5,18,4.5C18,4.5,21.3,4.5,21.3,4.5C21.4105,4.5,21.5,4.5895399999999995,21.5,4.7C21.5,4.7,21.5,5.8,21.5,5.8C21.5,5.91046,21.4105,6,21.3,6C21.3,6,20.5,6,20.5,6C20.5,6,20.5,19.5,20.5,19.5C20.5,21.1569,19.1569,22.5,17.5,22.5C17.5,22.5,6.5,22.5,6.5,22.5C4.84315,22.5,3.5,21.1569,3.5,19.5C3.5,19.5,3.5,6,3.5,6C3.5,6,2.7,6,2.7,6C2.5895431,6,2.5,5.91046,2.5,5.8C2.5,5.8,2.5,4.7,2.5,4.7C2.5,4.5895399999999995,2.5895431,4.5,2.7,4.5C2.7,4.5,6,4.5,6,4.5C6,4.5,6,3,6,3C6,2.171573,6.67157,1.5,7.5,1.5C7.5,1.5,16.5,1.5,16.5,1.5C16.5,1.5,16.5,1.5,16.5,1.5ZM19,6C19,6,5,6,5,6C5,6,5,19.5,5,19.5C5,20.2988,5.62446,20.9518,6.41186,20.9975C6.41186,20.9975,6.5,21,6.5,21C6.5,21,17.5,21,17.5,21C18.2988,21,18.9518,20.3755,18.9975,19.5881C18.9975,19.5881,19,19.5,19,19.5C19,19.5,19,6,19,6C19,6,19,6,19,6ZM9.8,9C9.91046,9,10,9.08954,10,9.2C10,9.2,10,17.8,10,17.8C10,17.9105,9.91046,18,9.8,18C9.8,18,8.7,18,8.7,18C8.58954,18,8.5,17.9105,8.5,17.8C8.5,17.8,8.5,9.2,8.5,9.2C8.5,9.08954,8.58954,9,8.7,9C8.7,9,9.8,9,9.8,9C9.8,9,9.8,9,9.8,9ZM15.8,9C15.9105,9,16,9.08954,16,9.2C16,9.2,16,17.8,16,17.8C16,17.9105,15.9105,18,15.8,18C15.8,18,14.7,18,14.7,18C14.5895,18,14.5,17.9105,14.5,17.8C14.5,17.8,14.5,9.2,14.5,9.2C14.5,9.08954,14.5895,9,14.7,9C14.7,9,15.8,9,15.8,9C15.8,9,15.8,9,15.8,9ZM16.5,3C16.5,3,7.5,3,7.5,3C7.5,3,7.5,4.5,7.5,4.5C7.5,4.5,16.5,4.5,16.5,4.5C16.5,4.5,16.5,3,16.5,3C16.5,3,16.5,3,16.5,3Z" fill="#000000" fill-opacity="1"/></g></g></svg>